<svg width="376" height="376" viewBox="0 0 376 376" fill="none" xmlns="http://www.w3.org/2000/svg">
<circle cx="188" cy="188" r="188" fill="#D84643"/>
<path d="M59.5029 228.852L102.511 321.084L85.174 329.169L42.1655 236.937L59.5029 228.852Z" fill="white"/>
<path d="M88.9409 224.786L124.26 300.528L104.319 309.826L69 234.085L88.9409 224.786Z" fill="white"/>
<path d="M105.492 230.5L115.492 224L123.992 220L132.493 217L139.495 215L145.995 213.5L152.995 212L158.495 211L166.496 211L175.995 211L183.495 211L189.494 211.999L194.495 213L202.496 214.5L212.996 217L222.496 220L228.996 222.5L232.496 226L234.496 229.5L234.496 234.5L233.996 237.5L232.496 240.5L228.996 242.5L225.496 243.5L219.496 243.5L212.996 241.5L206.996 240L201.496 238.499L191.996 236L186.495 235L183.495 236L181.994 238.499L183.495 241.5L187.996 243.5L192.996 244.5L198.996 245.5L203.996 246.5L209.496 247.5L215.496 248.5L219.996 250L223.496 250.5L227.496 250.5L230.496 249.5L232.996 248L235.496 246L237.496 244L239.496 241.5L240.996 238.499L244.496 237.5L304.997 221L307.998 220.5L311.999 221L315.499 222.5L318.5 225.5L320.5 228.5L321.5 232L321.5 236L320.5 240.5L317.5 244.5L311.497 248L230.496 282.5L225.996 283.5L220.996 284.5L215.496 285L209.996 285L204.996 284.5L200.496 283.5L195.996 282.5L191.996 281L187.996 279.5L184.496 278.5L179.496 277L176.496 276L172.995 275.5L166.996 275L161.496 275L155.996 275L149.495 275.5L144.495 277.5L124.627 284.989L100.99 234.298L105.492 230.5Z" fill="white"/>
<circle cx="236.5" cy="129.5" r="58.5" fill="white"/>
<circle cx="236" cy="129" r="48" fill="#D84643"/>
<path d="M240.594 84.6875V98.9844H233.562V84.6875H240.594ZM239.75 161.234V173.75H232.766V161.234H239.75ZM249.125 146.422C249.125 144.547 248.703 142.859 247.859 141.359C247.016 139.859 245.625 138.484 243.688 137.234C241.75 135.984 239.156 134.828 235.906 133.766C231.969 132.547 228.562 131.062 225.688 129.312C222.844 127.562 220.641 125.391 219.078 122.797C217.547 120.203 216.781 117.062 216.781 113.375C216.781 109.531 217.609 106.219 219.266 103.438C220.922 100.656 223.266 98.5156 226.297 97.0156C229.328 95.5156 232.891 94.7656 236.984 94.7656C240.172 94.7656 243.016 95.25 245.516 96.2188C248.016 97.1562 250.125 98.5625 251.844 100.438C253.594 102.312 254.922 104.609 255.828 107.328C256.766 110.047 257.234 113.188 257.234 116.75H248.609C248.609 114.656 248.359 112.734 247.859 110.984C247.359 109.234 246.609 107.719 245.609 106.438C244.609 105.125 243.391 104.125 241.953 103.438C240.516 102.719 238.859 102.359 236.984 102.359C234.359 102.359 232.188 102.812 230.469 103.719C228.781 104.625 227.531 105.906 226.719 107.562C225.906 109.188 225.5 111.078 225.5 113.234C225.5 115.234 225.906 116.984 226.719 118.484C227.531 119.984 228.906 121.344 230.844 122.562C232.812 123.75 235.516 124.922 238.953 126.078C242.984 127.359 246.406 128.875 249.219 130.625C252.031 132.344 254.172 134.469 255.641 137C257.109 139.5 257.844 142.609 257.844 146.328C257.844 150.359 256.938 153.766 255.125 156.547C253.312 159.297 250.766 161.391 247.484 162.828C244.203 164.266 240.359 164.984 235.953 164.984C233.297 164.984 230.672 164.625 228.078 163.906C225.484 163.188 223.141 162.016 221.047 160.391C218.953 158.734 217.281 156.562 216.031 153.875C214.781 151.156 214.156 147.828 214.156 143.891H222.875C222.875 146.547 223.25 148.75 224 150.5C224.781 152.219 225.812 153.594 227.094 154.625C228.375 155.625 229.781 156.344 231.312 156.781C232.875 157.188 234.422 157.391 235.953 157.391C238.766 157.391 241.141 156.953 243.078 156.078C245.047 155.172 246.547 153.891 247.578 152.234C248.609 150.578 249.125 148.641 249.125 146.422Z" fill="white"/>
</svg>
