<svg width="376" height="376" viewBox="0 0 376 376" fill="none" xmlns="http://www.w3.org/2000/svg">
<circle cx="188" cy="188" r="188" fill="#D84643"/>
<path d="M117.377 154.558C125.185 154.558 132.956 159.755 138.8 168.691C144.636 177.615 148.5 190.206 148.5 204.81C148.5 219.431 145.255 232.643 140.034 242.182C134.803 251.739 127.659 257.501 119.888 257.501C115.201 257.501 111.069 257.743 107.388 257.224C103.743 256.709 100.608 255.453 97.9512 252.483C95.2767 249.494 93.0448 244.724 91.3242 237.098C89.6048 229.476 88.4057 219.049 87.7607 204.787C87.2593 193.7 87.48 185.011 88.4385 178.215C89.3972 171.417 91.089 166.546 93.5059 163.066C98.3074 156.152 106.096 154.558 117.377 154.558Z" fill="white" stroke="white"/>
<path d="M270.327 257.593C268.465 257.742 266.527 257.719 264.54 257.659C262.561 257.599 260.522 257.5 258.502 257.5C250.694 257.5 242.924 252.302 237.081 243.367C231.245 234.443 227.379 221.852 227.379 207.248C227.379 199.731 223.385 192.682 218.429 186.375C215.946 183.215 213.207 180.223 210.58 177.437C207.946 174.645 205.435 172.07 203.381 169.716C201.322 167.357 199.769 165.272 199.021 163.472C198.65 162.578 198.489 161.783 198.545 161.079C198.601 160.385 198.868 159.748 199.405 159.159C200.506 157.951 202.762 156.924 206.681 156.197C210.577 155.474 216.02 155.062 223.383 155C238.153 154.875 249.311 154.532 257.83 154.98C266.355 155.429 272.117 156.668 276.147 159.622C280.157 162.561 282.541 167.267 284.132 174.886C285.725 182.512 286.505 192.957 287.38 207.279C288.251 221.522 287.854 231.781 286.53 239.157C285.205 246.535 282.961 250.98 280.181 253.657C277.41 256.325 274.044 257.297 270.327 257.593Z" fill="white" stroke="white"/>
<rect x="116.38" y="154.5" width="151" height="103" fill="white" stroke="white"/>
<line x1="232.88" y1="174" x2="262.88" y2="174" stroke="#D84643" stroke-width="14" stroke-linecap="round"/>
<line x1="232.88" y1="174.233" x2="261.88" y2="174.233" stroke="white" stroke-width="8" stroke-linecap="round"/>
<rect x="254.88" y="170.155" width="4" height="8.07767" fill="#D84643"/>
<line x1="96.1153" y1="164.056" x2="156.936" y2="108.765" stroke="white" stroke-width="7" stroke-linecap="round"/>
<line x1="182.38" y1="99.5" x2="259.38" y2="99.5" stroke="white" stroke-width="7" stroke-linecap="round"/>
<line x1="259.984" y1="99.7676" x2="272.647" y2="164.896" stroke="white" stroke-width="7" stroke-linecap="round"/>
<path d="M179.858 96.5C182.52 96.7502 184.856 96.749 186.856 96.6924C188.882 96.6351 190.513 96.5242 191.836 96.5537C193.168 96.5834 194.031 96.7585 194.566 97.1631C195.061 97.5368 195.38 98.1935 195.38 99.5C195.38 100.774 195.011 101.554 194.383 102.068C193.724 102.608 192.703 102.922 191.263 103.074C189.831 103.225 188.065 103.209 185.977 103.152C183.904 103.096 181.523 103 178.898 103H178.899C175.546 102.871 172.311 103.807 169.339 105.096C166.371 106.383 163.621 108.043 161.268 109.378C160.084 110.049 159.005 110.636 158.033 111.065C157.056 111.497 156.227 111.752 155.541 111.79C154.875 111.827 154.367 111.66 153.965 111.26C153.557 110.854 153.207 110.158 152.975 109.025C153.327 107.956 154.435 106.644 156.179 105.25C157.961 103.825 160.328 102.375 162.987 101.074C168.309 98.4712 174.72 96.5055 179.858 96.5Z" fill="white" stroke="white"/>
</svg>
